<svg width="60" height="60" viewBox="0 0 60 60" fill="none" xmlns="http://www.w3.org/2000/svg">
<path d="M0 20C0 8.9543 8.95431 0 20 0H40C51.0457 0 60 8.95431 60 20V40C60 51.0457 51.0457 60 40 60H20C8.9543 60 0 51.0457 0 40V20Z" fill="white"/>
<rect width="60" height="60" rx="10" fill="#FF3B30"/>
<circle r="29.875" transform="matrix(-1 0 0 1 30 30)" stroke="white" stroke-width="0.25"/>
<circle r="19.625" transform="matrix(-1 0 0 1 30 30)" stroke="white" stroke-width="0.75"/>
<circle r="14.5" transform="matrix(-1 0 0 1 30 30)" stroke="white"/>
<circle r="10" transform="matrix(-1 0 0 1 30 30)" fill="white"/>
<circle r="24.75" transform="matrix(-1 0 0 1 30 30)" stroke="white" stroke-width="0.5"/>
<path d="M35.2437 25.6406V22.5195C35.2437 22.2982 35.1662 22.1266 35.0112 22.0049C34.8563 21.8776 34.6737 21.8361 34.4634 21.8804L30.1968 22.8101C29.6489 22.9318 29.375 23.2223 29.375 23.6816L29.3916 32.9121C29.4359 33.3327 29.2643 33.5817 28.877 33.6592L27.5571 33.9331C26.7271 34.1102 26.1128 34.4062 25.7144 34.8213C25.3159 35.2363 25.1167 35.7565 25.1167 36.3818C25.1167 37.0182 25.3353 37.5356 25.7725 37.9341C26.2152 38.3381 26.7824 38.54 27.4741 38.54C27.7785 38.54 28.105 38.4792 28.4536 38.3574C28.8078 38.2412 29.1398 38.0531 29.4497 37.793C29.7651 37.5329 30.0225 37.1898 30.2217 36.7637C30.4209 36.3431 30.5205 35.8312 30.5205 35.228V27.6328C30.5205 27.417 30.5482 27.2731 30.6035 27.2012C30.6644 27.1237 30.7944 27.0628 30.9937 27.0186L34.7871 26.1885C34.9255 26.1553 35.0361 26.0916 35.1191 25.9976C35.2021 25.8979 35.2437 25.779 35.2437 25.6406Z" fill="black"/>
</svg>
