<svg width="203" height="203" viewBox="0 0 203 203" fill="none" xmlns="http://www.w3.org/2000/svg">
<circle r="101.375" transform="matrix(-1 0 0 1 101.5 101.5)" stroke="#FF3B30" stroke-width="0.25"/>
<circle r="67.2917" transform="matrix(-1 0 0 1 101.5 101.5)" stroke="#FF3B30" stroke-width="0.75"/>
<circle r="50.25" transform="matrix(-1 0 0 1 101.5 101.5)" stroke="#FF3B30"/>
<circle r="33.8333" transform="matrix(-1 0 0 1 101.5 101.5)" fill="#FF3B30"/>
<circle r="84.3333" transform="matrix(-1 0 0 1 101.5 101.5)" stroke="#FF3B30" stroke-width="0.5"/>
<path d="M109.166 93.9375V88.7969C109.166 88.4323 109.038 88.1497 108.783 87.9492C108.528 87.7396 108.227 87.6712 107.881 87.7441L100.854 89.2754C99.9512 89.4759 99.5 89.9544 99.5 90.7109L99.5273 105.914C99.6003 106.607 99.3177 107.017 98.6797 107.145L96.5059 107.596C95.1387 107.887 94.127 108.375 93.4707 109.059C92.8145 109.742 92.4863 110.599 92.4863 111.629C92.4863 112.677 92.8464 113.529 93.5664 114.186C94.2956 114.851 95.2298 115.184 96.3691 115.184C96.8704 115.184 97.4082 115.083 97.9824 114.883C98.5658 114.691 99.1126 114.382 99.623 113.953C100.143 113.525 100.566 112.96 100.895 112.258C101.223 111.565 101.387 110.722 101.387 109.729V97.2188C101.387 96.8633 101.432 96.6263 101.523 96.5078C101.624 96.3802 101.838 96.2799 102.166 96.207L108.414 94.8398C108.642 94.7852 108.824 94.6803 108.961 94.5254C109.098 94.3613 109.166 94.1654 109.166 93.9375Z" fill="#F2F2F6"/>
</svg>
